# xmcd CD database file
#
# Track frame offsets:
#	150
#	3183
#	30628
#	58847
#	110147
#	144800
#	189152
#
# Disc length: 2944 seconds
#
# Revision: 0
# Processed by: cddbd v1.5.2PL0 Copyright (c) Steve Scherf et al.
# Submitted via: CDex 1.51
#
DISCID=520b7e07
DTITLE=Kevin Kendle and Llewellyn - Journey To Atlantis
DYEAR=2006
DGENRE=New Age
TTITLE0=Into The Deep
TTITLE1=The Lost City - Part 1
TTITLE2=Lights Of Atlantis
TTITLE3=Hidden Treasures
TTITLE4=The Great Crystal
TTITLE5=Mermaids Of Atlantis
TTITLE6=The Lost City - Part 2
EXTD=YEAR: 2006
EXTT0=
EXTT1=
EXTT2=
EXTT3=
EXTT4=
EXTT5=
EXTT6=
PLAYORDER=
